<?xml version="1.0" encoding="utf-8"?>
<!-- Generator: Adobe Illustrator 16.0.0, SVG Export Plug-In . SVG Version: 6.00 Build 0)  -->
<!DOCTYPE svg PUBLIC "-//W3C//DTD SVG 1.1//EN" "http://www.w3.org/Graphics/SVG/1.1/DTD/svg11.dtd">
<svg version="1.1" id="Layer_1" xmlns="http://www.w3.org/2000/svg" xmlns:xlink="http://www.w3.org/1999/xlink" x="0px" y="0px"
	 width="560px" height="560px" viewBox="0 0 560 560" enable-background="new 0 0 560 560" xml:space="preserve">
<g>
	<path fill-rule="evenodd" clip-rule="evenodd" fill="#FFFFFF" d="M271.76,503.44c-2.88,0-5.76,0-8.64,0
		c-0.466-0.501-0.963-0.968-1.491-1.396c-1.708-1.117-3.673-0.871-5.556-0.999c-3.499-0.237-6.873-0.71-7.447-5.076
		c-0.567-4.308-0.065-8.194,4.852-9.71c-4.515-0.545-5.224-3.79-4.989-7.591c0.263-4.255,2.763-5.799,6.336-5.41
		c-5.252-1.057-7.247,1.28-7.137,7.031c0.136,7.122,0.869,14.314-0.612,21.417c-0.356,0.622-0.771,1.196-1.236,1.734
		c-3.84,0-7.68,0-11.52,0c-1.536-8.752,0.083-17.571-0.706-25.71c-1.444,7.015-3.42,8.884-9.595,8.893
		c-6.208,0.008-9.005-3.279-8.847-9.834c-1.73,9.256,1.806,18.26-2.452,26.651c-4.8,0-9.6,0-14.4,0
		c-3.89-8.39-1.461-17.197-1.722-25.81c0.355-2.688,2.495-3.785,5.223-5.24c-4.373-0.279-8.046-0.156-11.537-0.069
		c7.077,9.307,3.656,19.57,3.494,29.432c-0.348,0.605-0.756,1.167-1.218,1.688c-21.36,0-42.722-0.152-64.079,0.126
		c-4.305,0.057-5.169-0.872-5.161-5.166c0.163-78.961,0.12-157.92,0.12-236.88c4.274,0.384,4.223,3.985,4.787,6.826
		c4.89,24.641,14.779,47.085,29.94,67.067c27.045,35.65,62.601,57.423,107.036,63.837c72.318,10.439,140.296-29.844,170.004-94.411
		c27.925-60.689,14.585-135.202-32.327-182.566c-23.663-23.89-51.429-39.662-84.471-46.154c-2.946-0.58-7.053-0.049-7.77-4.679
		c45.841,0,91.681,0.075,137.52-0.122c4.298-0.019,5.162,0.868,5.158,5.162c-0.142,140.64-0.142,281.28,0,421.92
		c0.004,4.293-0.854,5.216-5.159,5.166c-23.276-0.267-46.559-0.126-69.838-0.126c-1.037-9.191-1.004-9.329,7.014-28.946
		c-3.086,1.898-2.996,5.16-4.48,7.45c-2.412,3.72-4.627,3.711-6.986,0.105c-1.508-2.305-1.935-5.244-4.414-7.137
		c4.672,9.005,8.157,18.198,5.987,28.527c-3.84,0-7.681,0-11.521,0c-0.48-0.538-0.965-1.07-1.455-1.593
		c-0.84-0.459,0.404-0.368-0.499-0.479c-12.146-1.477-12.45-9.981-11.564-19.261c0.136-1.426,0.059-2.879-0.047-4.316
		c-0.013-0.171-0.244-0.327-0.247-0.331c-0.49,7.939,0.772,16.081-0.76,24.159c-0.357,0.655-0.782,1.26-1.268,1.821
		c-2.399,0-4.801,0-7.2,0c-3.379-8.179-5.377-16.855-8.999-24.943c-0.817-1.823-0.739-4.796-3.596-4.622
		c-2.167,0.132-2.494,2.627-3.279,4.318c-3.815,8.229-5.421,17.339-10.046,25.247c-3.36,0-6.72,0-10.08,0
		c-0.222-0.469-0.339-0.98-0.084-1.357c6.857-10.142,6.841-10.297-2.933-17.013c-2.811-1.931-5.815-3.807-4.903-7.909
		c0.579-2.6,3.313-3.601,10.397-3.685c-6.13-1.899-10.05-0.785-12.061,3.71c-2.034,4.548,1.267,7.044,4.858,8.994
		c0.842,0.457,1.703,0.885,2.506,1.406c3.184,2.069,5.965,4.602,4.493,8.776c-1.332,3.783-4.881,4.759-8.311,3.806
		c-4.338-1.206-2.101,1.93-2.604,3.271c-5.28,0-10.561,0-15.84,0c6.397-10.379,6.41-10.394-4.048-19.09
		c-2.442-2.031-3.762-4.463-2.494-7.534c1.615-3.907,4.978-3.837,8.343-3.57c-4.185-1.384-8.232-1.318-10.344,3.381
		c-1.929,4.291,0.772,7.229,4.174,9.527c1.187,0.803,2.5,1.397,3.733,2.125c2.787,1.641,5.463,3.551,4.273,7.307
		c-1.153,3.646-4.125,5.21-7.818,4.946C273.803,500.359,271.461,499.702,271.76,503.44z"/>
	<path fill-rule="evenodd" clip-rule="evenodd" fill="#7F1C34" d="M310.64,71.44c3.512,3.431,8.317,2.745,12.528,3.728
		c69.661,16.238,120.822,74.672,127.524,145.865c7.896,83.877-46.499,159.147-128.655,178.028
		c-70.875,16.288-148.487-20.886-180.291-86.211c-7.281-14.955-13.095-30.327-15.744-46.82c-0.262-1.635,0.127-4.07-2.562-4.509
		c0-2.4,0-4.8,0-7.2c1.081-1.44,1.081-2.88,0-4.32c0-1.92,0-3.84,0-5.76c1.221-4.8,1.221-9.6,0-14.4c0-2.399,0-4.8,0-7.2
		c0.907-0.96,0.907-1.92,0-2.88c0-1.92,0-3.839,0-5.76c2.339-17.636,7.294-34.431,15.186-50.449
		c20.22-41.043,51.773-69.233,94.726-84.899c9.24-3.37,18.842-4.986,28.329-7.212C278,71.44,294.319,71.44,310.64,71.44z"/>
	<path fill-rule="evenodd" clip-rule="evenodd" fill="#FFFFFF" d="M261.68,71.44c-0.76,3.292-3.689,2.467-5.794,2.867
		c-64.861,12.348-118.664,67.195-129.661,132.134c-0.44,2.603,0.083,5.768-2.786,7.559c0-45.723,0.074-91.446-0.116-137.168
		c-0.019-4.477,0.993-5.531,5.497-5.511C173.106,71.518,217.394,71.44,261.68,71.44z"/>
	<path fill-rule="evenodd" clip-rule="evenodd" fill="#832739" d="M314.96,503.44c1.41-10.763,6.541-20.313,10.009-30.4
		c1.13-3.285,5.178-3.438,6.116-0.958c3.867,10.234,9.651,19.95,9.795,31.358c-0.96,0-1.92,0-2.88,0
		c-1.099-0.881-2.253-1.642-3.185-2.775c-4.564-5.555-8.25-5.654-13.111-0.27c-1.152,1.276-2.6,2.005-3.864,3.045
		C316.88,503.44,315.92,503.44,314.96,503.44z"/>
	<path fill-rule="evenodd" clip-rule="evenodd" fill="#83283A" d="M212.72,503.44c0.013-9.321,0.004-18.644,0.061-27.964
		c0.011-1.796-0.623-4.32,2.114-4.533c3.396-0.266,2.878,2.668,2.748,4.612c-0.375,5.59-0.088,9.802,7.66,8.831
		c4.058-0.508,6.349-1.043,5.753-5.657c-0.242-1.875-0.082-3.823,0.083-5.723c0.111-1.276,0.892-2.232,2.323-2.179
		c1.365,0.05,2.347,0.885,2.264,2.229c-0.627,10.121,1.942,20.393-1.406,30.383c-0.959,0-1.92,0-2.88,0
		c-1.855-1.882-1.884-4.319-1.958-6.704c-0.099-3.235-0.994-5.562-4.866-5.663c-4.05-0.108-5.519,2.003-5.675,5.691
		c-0.114,2.686-0.582,5.276-3.342,6.676C214.64,503.44,213.68,503.44,212.72,503.44z"/>
	<path fill-rule="evenodd" clip-rule="evenodd" fill="#84293A" d="M296.24,503.44c-1.122-0.847-2.287-1.642-3.353-2.554
		c-1.014-0.868-1.271-2.105-0.697-3.246c0.751-1.492,1.891-0.81,2.99-0.278c1.071,0.519,2.18,1.013,3.326,1.312
		c3.004,0.783,5.996,0.537,7.464-2.488c1.668-3.438-0.927-5.243-3.56-6.691c-1.462-0.805-3.063-1.364-4.495-2.211
		c-4.747-2.807-6.726-6.808-4.368-12.071c1.954-4.364,9.109-6.062,13.888-3.705c1.654,0.815,3.104,1.86,2.49,3.733
		c-0.862,2.624-2.762,0.942-4.107,0.414c-3.241-1.273-6.512-1.583-7.792,2.178c-1.231,3.621,2.403,4.655,4.764,6.089
		c1.213,0.737,2.619,1.156,3.83,1.896c7.785,4.752,7.088,11.689-1.74,17.624C302,503.44,299.12,503.44,296.24,503.44z"/>
	<path fill-rule="evenodd" clip-rule="evenodd" fill="#83283A" d="M271.76,503.44c-0.986-1.952-4.738-2.975-2.882-5.748
		c1.7-2.539,3.625,0.575,5.481,0.929c3.302,0.625,6.496,0.88,8.035-2.659c1.777-4.088-1.789-5.311-4.426-6.874
		c-2.045-1.214-4.369-2.134-6.066-3.721c-3.958-3.704-4.138-7.996-0.547-12.063c3.026-3.428,11.085-3.795,13.974-0.944
		c0.956,0.944,1.281,2.062,0.821,3.25c-0.665,1.715-1.943,0.7-2.963,0.434c-1.15-0.301-2.231-0.938-3.39-1.109
		c-2.299-0.342-4.388,0.19-5.268,2.629c-0.762,2.113,0.231,3.725,2.027,4.847c1.214,0.76,2.445,1.53,3.755,2.095
		c4.136,1.777,7.664,3.923,7.815,9.171c0.157,5.51-3.348,7.939-7.727,9.766C277.52,503.44,274.64,503.44,271.76,503.44z"/>
	<path fill-rule="evenodd" clip-rule="evenodd" fill="#862E3D" d="M375.44,503.44c0.163-10.323-3.309-19.537-8.485-28.274
		c-0.717-1.212-2.426-3.032,0.083-4.174c1.683-0.765,3.288-0.164,4.201,1.628c1.934,3.8,3.86,7.605,6.114,12.048
		c2.052-4.276,3.742-7.863,5.493-11.42c0.931-1.891,2.45-3.333,4.544-2.167c2.16,1.2,0.675,2.988-0.163,4.296
		c-5.484,8.568-7.767,18.129-8.907,28.063C377.36,503.44,376.399,503.44,375.44,503.44z"/>
	<path fill-rule="evenodd" clip-rule="evenodd" fill="#F7F2F0" d="M215.6,503.44c2.888-2.617,2.346-6.145,1.961-9.302
		c-0.771-6.322,3.344-5.371,7.167-5.512c4.029-0.146,7.1,0.101,6.419,5.555c-0.378,3.027,0.165,6.169,0.293,9.259
		C226.16,503.44,220.88,503.44,215.6,503.44z"/>
	<path fill-rule="evenodd" clip-rule="evenodd" fill="#FBF8F8" d="M317.84,503.44c3.728-1.874,1.556-8.101,7.633-8.95
		c7.769-1.087,10.482,3.006,12.527,8.95C331.28,503.44,324.56,503.44,317.84,503.44z"/>
	<path fill-rule="evenodd" clip-rule="evenodd" fill="#B78383" d="M198.252,476.046c0.022,9.133,0.045,18.264,0.068,27.395
		c-1.92,0-3.839,0-5.76,0c0.128-0.548,0.256-1.095,0.385-1.642c3.653-5.481,0.994-11.653,1.928-17.424
		C195.358,481.382,193.613,477.387,198.252,476.046z"/>
	<path fill-rule="evenodd" clip-rule="evenodd" fill="#B78282" d="M245.84,503.44c0.013-0.491,0.025-0.98,0.038-1.472
		c5.638-2.403,11.3-1.921,16.974-0.142c0.09,0.537,0.179,1.075,0.269,1.613C257.36,503.44,251.6,503.44,245.84,503.44z"/>
	<path fill-rule="evenodd" clip-rule="evenodd" fill="#B68281" d="M363.87,501.962c0.017,0.492,0.033,0.986,0.05,1.479
		c-5.279,0-10.561,0-15.84,0c0.006-0.485,0.013-0.971,0.019-1.456C353.352,498.906,358.608,498.919,363.87,501.962z"/>
	<path fill-rule="evenodd" clip-rule="evenodd" fill="#852F3E" d="M123.44,229.84c2.254,4.8,2.253,9.6,0,14.4
		C123.44,239.44,123.44,234.64,123.44,229.84z"/>
	<path fill-rule="evenodd" clip-rule="evenodd" fill="#B88585" d="M123.44,250c1.673,1.44,2.286,2.88,0,4.32
		C123.44,252.88,123.44,251.44,123.44,250z"/>
	<path fill-rule="evenodd" clip-rule="evenodd" fill="#BC8B8B" d="M123.44,219.76c1.968,0.96,1.614,1.92,0,2.88
		C123.44,221.68,123.44,220.72,123.44,219.76z"/>
	<path fill-rule="evenodd" clip-rule="evenodd" fill="#822338" d="M182.526,442.879c0-5.61-0.033-11.221,0.019-16.83
		c0.017-1.815-0.492-4.27,2.324-4.357c2.868-0.088,2.467,2.394,2.481,4.2c0.061,7.65,0.053,15.302,0.008,22.952
		c-0.01,1.832,0.42,4.052-2.3,4.512c-2.386,0.402-4.174-0.501-5.34-2.662c-3.47-6.426-6.963-12.839-11.65-18.997
		c0,5.837,0.02,11.673-0.011,17.509c-0.01,1.843,0.483,4.329-2.211,4.489c-3.489,0.207-2.556-2.793-2.586-4.697
		c-0.11-7.171-0.113-14.346,0-21.517c0.034-2.171-0.989-5.123,2.659-5.633c2.712-0.379,4.482,0.906,5.736,3.296
		c3.164,6.03,6.44,12.002,9.671,17.996C181.726,443.053,182.126,442.966,182.526,442.879z"/>
	<path fill-rule="evenodd" clip-rule="evenodd" fill="#822539" d="M392.521,437.756c0.086-10.76,5.234-16.501,14.694-16.388
		c9.106,0.11,14.022,5.946,13.806,16.389c-0.219,10.55-5.691,16.605-14.899,16.483C396.985,454.12,392.436,448.606,392.521,437.756z
		"/>
	<path fill-rule="evenodd" clip-rule="evenodd" fill="#822538" d="M265.431,437.882c0-1.919-0.318-3.906,0.069-5.745
		c0.722-3.434-2.618-8.779,2.449-9.993c5.133-1.228,11.428-1.79,15.359,3.27c2.959,3.809,2.224,7.917-1.334,11.61
		c-2.943,3.057,1.794,4.732,1.912,7.416c0.137,3.118,4.905,7.229,1.435,8.833c-4.796,2.216-4.497-4.048-6.095-6.81
		c-1.067-1.844-1.473-4.22-3.397-5.35c-2.866-1.682-5.61-2.343-5.518,2.624c0.044,2.398-0.022,4.799-0.018,7.199
		c0.002,1.699-0.823,2.801-2.5,2.847c-1.888,0.052-2.304-1.426-2.32-2.942c-0.044-4.319-0.015-8.639-0.015-12.959
		C265.449,437.882,265.44,437.882,265.431,437.882z"/>
	<path fill-rule="evenodd" clip-rule="evenodd" fill="#852C3C" d="M130.626,434.057c-0.003-2.634-0.054-5.269,0.014-7.899
		c0.048-1.823-0.473-4.33,2.265-4.445c3.448-0.145,2.543,2.822,2.603,4.749c0.14,4.544,0,9.096,0.068,13.643
		c0.074,4.889,1.081,9.61,7.096,9.676c6.067,0.064,7.099-4.494,7.034-9.511c-0.065-5.026-0.014-10.054,0.008-15.081
		c0.008-1.768,0.269-3.475,2.555-3.535c2.326-0.062,2.63,1.636,2.629,3.416c-0.003,6.223,0.36,12.479-0.169,18.659
		c-0.601,7.017-5.873,10.943-12.971,10.526c-6.868-0.403-10.724-4.361-11.103-11.581C130.504,439.809,130.63,436.93,130.626,434.057
		z"/>
	<path fill-rule="evenodd" clip-rule="evenodd" fill="#84293A" d="M220.51,447.271c2.881-8.514,5.171-15.279,7.459-22.044
		c0.701-2.072,1.387-4.592,4.271-3.416c2.735,1.115,0.84,3.366,0.323,4.917c-2.566,7.686-5.37,15.292-8.009,22.955
		c-0.722,2.097-1.268,4.156-4.042,4.279c-2.762,0.121-3.662-1.82-4.391-3.9c-2.763-7.88-5.505-15.766-8.209-23.666
		c-0.566-1.653-2.194-3.768,0.726-4.681c2.245-0.702,3.401,0.817,4.098,2.908C215.063,431.608,217.505,438.554,220.51,447.271z"/>
	<path fill-rule="evenodd" clip-rule="evenodd" fill="#84283A" d="M299.016,454.265c-0.735-0.131-2.17-0.277-3.541-0.657
		c-2.539-0.704-6.01-1.451-4.69-4.884c1.239-3.224,3.586,0.064,5.248,0.528c3.648,1.019,7.041,1.12,8.545-2.719
		c1.548-3.951-2.027-5.253-4.763-6.77c-2.083-1.154-4.435-2.129-6.032-3.792c-3.722-3.871-3.726-8.252-0.042-12.168
		c3.061-3.253,11.57-3.3,13.956-0.302c0.532,0.67,0.942,1.869,0.718,2.618c-0.432,1.445-1.738,1.267-2.939,0.822
		c-1.118-0.414-2.214-0.981-3.37-1.172c-2.264-0.371-4.479-0.016-5.497,2.33c-1.077,2.483,0.483,4.131,2.435,5.318
		c1.63,0.992,3.404,1.746,5.111,2.614c4.492,2.283,7.236,5.592,5.96,10.943C309.074,451.334,304.944,454.113,299.016,454.265z"/>
	<path fill-rule="evenodd" clip-rule="evenodd" fill="#852B3B" d="M239.814,437.485c-0.006-1.433-0.006-2.866-0.006-4.298
		c-0.004-11.382,3.71-14.198,14.958-11.428c1.239,0.305,2.426,0.63,2.535,2.013c0.164,2.069-1.497,2.092-2.913,2.138
		c-2.147,0.071-4.304,0.144-6.445,0.021c-3.163-0.183-3.358,1.77-3.343,4.142c0.017,2.49-0.195,4.989,3.49,4.715
		c0.712-0.054,1.44-0.069,2.147,0.016c1.981,0.236,5.143-0.838,5.27,2.073c0.142,3.245-3.159,2.186-4.992,2.098
		c-3.931-0.186-6.033,0.42-6.081,5.3c-0.051,5.187,2.601,5.275,6.251,5.051c1.424-0.087,2.864,0.006,4.292,0.096
		c1.273,0.081,2.409,0.583,2.448,2.028c0.041,1.491-1.101,1.993-2.38,2.009c-4.058,0.048-8.117,0.054-12.174,0.032
		c-2.553-0.014-3.085-1.664-3.063-3.825C239.852,445.605,239.821,441.545,239.814,437.485z"/>
	<path fill-rule="evenodd" clip-rule="evenodd" fill="#883240" d="M427.405,437.76c0-1.68,0-3.359,0-5.039
		c0-11.166,2.866-13.387,14.103-11.001c1.475,0.313,2.992,0.592,2.814,2.472c-0.189,2.021-2.031,1.441-3.317,1.794
		c-2.734,0.749-6.489-2.052-8.209,2.06c-1.892,4.525,0.479,7.376,6.036,7.771c1.919,0.136,5.029-0.949,4.861,2.396
		c-0.131,2.585-2.97,2.193-4.688,1.887c-6.915-1.23-6.497,3.147-6.432,7.723c0.033,2.3,1.363,6.168-2.906,5.876
		c-3.465-0.236-2.099-3.702-2.215-5.864C427.272,444.484,427.405,441.118,427.405,437.76z"/>
	<path fill-rule="evenodd" clip-rule="evenodd" fill="#893542" d="M335.719,439.643c-0.007-2.635-0.207-5.289,0.039-7.901
		c0.393-4.164-0.772-6.436-5.472-5.831c-1.468,0.189-3.783,0.563-3.776-1.958c0.007-2.313,2.083-2.235,3.75-2.245
		c5.51-0.031,11.02-0.005,16.529-0.013c1.802-0.003,3.591,0.296,3.464,2.541c-0.112,1.989-2.07,1.914-3.332,1.679
		c-6.358-1.187-6.253,2.728-6.101,7.153c0.198,5.743,0.028,11.497,0.054,17.246c0.008,1.806-0.163,3.514-2.473,3.535
		c-2.218,0.021-2.678-1.578-2.676-3.427C335.729,446.828,335.727,443.235,335.719,439.643z"/>
	<path fill-rule="evenodd" clip-rule="evenodd" fill="#852C3C" d="M363.984,435.54c2.213-4.521,3.89-7.861,5.484-11.239
		c0.911-1.93,2.272-3.479,4.42-2.541c3.033,1.325,0.582,3.297-0.064,4.699c-3.569,7.734-8.885,14.883-7.349,24.196
		c0.321,1.947-0.769,3.313-2.857,3.151c-1.649-0.126-2.568-1.374-2.296-3.003c1.603-9.572-3.921-16.912-7.631-24.832
		c-0.641-1.368-2.384-3.16-0.03-4.218c1.882-0.846,3.662,0.05,4.645,2.177C359.901,427.388,361.644,430.778,363.984,435.54z"/>
	<path fill-rule="evenodd" clip-rule="evenodd" fill="#812036" d="M262.852,501.827c-5.658,0.046-11.316,0.094-16.974,0.142
		c-1.259-8.822-0.21-17.696-0.584-26.537c-0.125-2.977,0.934-4.566,4.104-4.354c1.193,0.08,2.441-0.203,3.588,0.039
		c3.246,0.687,9.013-1.969,9.23,2.005c0.216,3.943-5.423,1.716-8.384,1.91c-3.489,0.229-3.77,1.93-3.745,4.628
		c0.025,2.621,0.075,4.944,3.679,4.558c0.236-0.025,0.492-0.049,0.717,0.01c2.256,0.584,6.333-1.484,6.302,2.257
		c-0.025,2.859-3.954,1.856-6.089,1.684c-4.911-0.396-4.446,2.624-4.655,5.903c-0.258,4.075,1.668,4.532,5.107,4.793
		C257.769,499.063,262.238,495.998,262.852,501.827z"/>
	<path fill-rule="evenodd" clip-rule="evenodd" fill="#8B3844" d="M198.252,476.046c-2.531,6.961-0.618,14.167-1.131,21.24
		c-0.205,2.819,0.012,5.579-4.176,4.513c-0.09-6.892-0.388-13.79-0.191-20.675c0.115-4.027-0.555-6.51-5.342-5.922
		c-1.477,0.182-3.73,0.532-3.753-1.988c-0.022-2.349,2.057-2.25,3.66-2.273c4.995-0.075,9.994-0.128,14.986,0
		c1.888,0.05,4.966-0.929,4.663,2.544c-0.243,2.775-2.969,1.426-4.635,1.778C200.977,475.55,199.612,475.787,198.252,476.046z"/>
	<path fill-rule="evenodd" clip-rule="evenodd" fill="#90444B" d="M316.331,437.224c0.002-4.296-0.031-8.593,0.019-12.888
		c0.019-1.579,0.686-2.748,2.507-2.79c1.849-0.042,2.576,1.159,2.589,2.71c0.075,8.829,0.071,17.66,0.083,26.49
		c0.002,1.937-0.773,3.342-2.919,3.144c-1.694-0.157-2.287-1.451-2.284-3.061C316.336,446.294,316.329,441.759,316.331,437.224z"/>
	<path fill-rule="evenodd" clip-rule="evenodd" fill="#842A3B" d="M363.87,501.962c-5.257,0.007-10.515,0.016-15.771,0.022
		c-1.358-8.994-0.281-18.042-0.56-27.061c-0.056-1.811-0.283-4.277,2.626-3.998c2.708,0.261,2.192,2.66,2.205,4.479
		c0.044,5.954,0.264,11.921-0.063,17.856c-0.229,4.146,1.306,5.214,5.251,5.239C359.816,498.516,364.537,495.935,363.87,501.962z"/>
	<path fill-rule="evenodd" clip-rule="evenodd" fill="#812337" d="M196.597,437.534c0-3.803-0.063-7.606,0.027-11.407
		c0.042-1.769-0.567-4.206,2.213-4.422c3.004-0.233,2.483,2.28,2.498,4.043c0.063,8.08,0.037,16.161,0.02,24.242
		c-0.002,1.643,0.197,3.67-2.151,3.746c-2.818,0.091-2.583-2.197-2.596-4.081C196.577,445.615,196.598,441.574,196.597,437.534z"/>
	<path fill-rule="evenodd" clip-rule="evenodd" fill="#FFFFFF" d="M437.731,236.961c0.106,83.431-66.88,151.239-149.647,151.478
		c-82.372,0.237-150.036-67.847-150.144-151.075c-0.108-83.658,67.532-152.102,150.094-151.878
		C370.745,85.71,437.624,153.382,437.731,236.961z"/>
	<path fill-rule="evenodd" clip-rule="evenodd" fill="#EFE6E4" d="M328.509,478.686c0.724,4.126,5.41,7.532,2.563,11.649
		c-0.874,1.265-6.104,1.147-6.419-0.228C323.716,486.011,326.27,482.306,328.509,478.686z"/>
	<path fill-rule="evenodd" clip-rule="evenodd" fill="#FDFBFA" d="M415.729,437.162c0.115,7.552-3.22,12.248-8.876,12.498
		c-5.769,0.255-9.291-4.278-9.271-11.935c0.019-7.563,3.501-12.121,9.242-12.095C412.427,425.657,415.616,429.787,415.729,437.162z"
		/>
	<path fill-rule="evenodd" clip-rule="evenodd" fill="#F0E6E5" d="M270.229,430.845c0.238-2.175-0.861-5.219,3.162-4.964
		c3.035,0.193,6.095,0.871,6.277,4.525c0.198,3.971-2.643,5.172-6.173,5.346C269.544,435.945,270.357,433.121,270.229,430.845z"/>
	<path fill-rule="evenodd" clip-rule="evenodd" fill="#7E1C34" d="M256.164,276.148c9.981,11.692,14.423,28.222,30.432,34.685
		c2.41,0.973,4.561,2.641,6.737,4.123c2.855,1.946,2.888,5.429,2.204,7.818c-1.109,3.877-5.531,2.645-8.536,3.528
		c-2.997,0.882-3.077-1.381-3.922-3.537c-2.003-5.112-6.525-8.222-11.015-10.885c-3.489-2.068-5.814-4.556-7.381-8.299
		c-3.188-7.618-8.465-13.227-16.816-15.278c-5.185-1.273-4.866-7.264-8.682-9.902c-4.682-3.236-4.27-7.359-1.032-11.775
		c2.191-2.988,0.422-6.47,0.236-9.748c-0.17-2.987-0.037-5.991-0.037-9.409c-5.013,3.058-4.592,7.64-4.059,11.729
		c0.792,6.069-2.434,9.277-7.338,10.521c-9.688,2.458-18.369,8.49-28.863,8.084c-1.589-0.061-3.928,0.101-3.847,2.303
		c0.309,8.503-3.646,16.212-5.29,24.235c-2.332,11.382-1.715,18.945,8.614,25.16c2.881,1.733,2.067,6.635,0.775,9.392
		c-1.721,3.67-5.941,1.705-9.094,1.777c-3.351,0.076-5.174-1.727-5.604-5.229c-0.453-3.694-0.479-7.613-4.826-9.669
		c-1.486-0.702-0.919-3.133-0.489-4.723c3.141-11.614,3.695-23.356,2.92-35.35c-0.297-4.604,1.625-9.365,2.635-14.033
		c0.482-2.228,2.4-2.575,4.286-3.206c2.219-0.743,5.646,0.1,5.955-3.758c3.769-10.147,5.516-20.531,5.387-31.454
		c-0.084-7.14,2.632-14.022,6.077-20.405c0.906-1.677,2.151-3.187,2.682-5.045c0.818-2.866,0.106-5.332-2.635-6.68
		c-3.008-1.479-5.103,0.186-6.443,2.729c-2.511,4.764-3.137,9.991-3.184,15.282c-0.1,11.224,0.073,22.448-0.095,33.67
		c-0.049,3.236,0.487,6.897-3.448,8.673c-2.98,2.366-6.36,1.685-9.609,1.023c-1.689-0.344-4.281-0.158-4.312-2.851
		c-0.039-3.309,2.701-1.804,4.285-2.037c5.276-0.777,2.891-4.636,1.978-6.485c-6.24-12.638-3.063-26.44-4.404-39.562
		c-0.587-5.75,2.715-14.846,9.602-18.852c8.023-4.668,16.515-2.313,23.828,1.999c3.73,2.2,6.443,2.956,10.395,1.458
		c10.174-3.857,19.766-0.714,28.847,3.647c13.767,6.613,26.857,14.314,39.101,23.659c6.96,5.313,16.346,6.111,25.153,8.808
		c-0.136-2.895-1.181-4.797-3.151-5.593c-8.235-3.331-14.94-9.623-23.513-12.182c-3.146-0.939-5.486-2.862-7.899-4.775
		c-4.317-3.424-8.288-8-13.545-9.247c-7.549-1.79-7.442-5.833-6.195-11.875c2.109-10.217,7.832-18.953,11.971-28.183
		c2.464-5.494,10.361-8.861,16.297-12.365c3.186-1.879,5.89-3.919,8.525-6.998c-3.471-2.506-7.53-2.847-11.288-3.679
		c-3.475-0.769-4.208-2.655-4.956-5.87c-1.76-7.569,0.564-14.564,1.873-21.736c0.268-1.467,1.008-3.208,2.499-3.164
		c7.021,0.208,13.299-4.376,20.384-3.152c7.238,1.252,11.53,6.075,13.417,12.804c1.61,5.742,1.953,11.575-4.602,14.991
		c-3.45,1.799-2.894,4.841-2.008,7.503c1.085,3.259,3.653,0.933,5.466,0.683c12.875-1.779,20.635,5.264,21.836,19.744
		c0.396,4.758,0.898,9.57,2.059,14.181c0.8,3.179,2.452,6.051,6.12,1.52c3.951-4.88,5.289-9.825,2.942-15.735
		c-1.405-3.541-2.776-7.188-1.957-11.076c0.259-1.224,0.664-2.978,2.534-3.052c1.649-0.066,2.813,0.988,3.18,2.417
		c0.892,3.469,1.542,7,2.26,10.513c1.149,5.633,2.279,11.173,7.075,15.22c3.062,2.583,3.66,6.825,1.895,9.805
		c-3.905,6.59-1.024,11.935,1.924,17.337c7.194,13.184,9.825,27.834,13.153,42.144c2.202,9.47,3.601,19.301,3.581,29.173
		c1.018,8.047,0.18,16.074,0.439,24.578c-4.946-3.335-4.511-3.415-5.595-9.322c-2.638-14.368-2.261-29.103-5.476-43.375
		c-3.624-16.083-9.153-31.596-14.394-47.189c-0.912-2.713-2.122-5.377-4.336-7.353c-1.663-1.484-3.548-2.734-5.783-1.245
		c-2.033,1.355-2.861,3.546-1.632,5.645c6.191,10.576,3.482,21.745,2.822,32.915c-0.64,10.828,1.378,21.357,6.784,30.989
		c1.171,2.088,2.506,4.101,3.43,6.304c5.149,12.292,13.003,22.789,21.76,32.65c1.495,1.684,2.057,3.695,3.203,5.464
		c5.692,3.416,8.314,9.576,12.669,14.193c3.352,3.554,3.363,7.472,1.535,11.913c-1.906,4.63-5.982,3.384-9.206,3.725
		c-3.764,0.398-5.792-1.609-6.367-5.895c-1.307-9.751-4.357-18.919-12.016-25.823c-7.364-6.64-11.327-16.014-18.38-22.896
		c-1.882-1.835-3.772-4.677-5.963-5.002c-9.12-1.355-13.595-7.891-17.538-14.963c-2.078,1.131-2.548,3.199-1.957,3.98
		c4.286,5.678,3.592,13.62,8.683,18.843c9.023,9.258,9.288,27.945,0.455,37.33c-0.647,0.688-1.412,1.461-2.268,1.729
		c-6.627,2.077-13.158,4.09-18.899,8.445c-1.699,1.289-6.281,2.702-7.738-1.872c-1.302-4.089-2.967-8.85,0.146-12.271
		c2.188-2.405,6.373-2.067,8.982,0.785c1.953,2.135,3.671,1.56,5.673,0.508c2.328-1.223,4.603-2.576,7.013-3.608
		c6.357-2.722,9.327-6.836,6.938-14.018c-2.948-8.861-5.04-10.533-14.379-9.853c-4.316,0.313-7.004-3.313-11.123-4.019
		c-8.844-1.517-18.082-1.893-26.053-7.125c-3.068-2.014-7.043-0.693-10.602-0.824c-6.759-0.25-13.375-0.916-19.105-5.025
		c-2.438-1.727-0.353-4.317-1.641-7.828c0.529,1.95,0.804,2.386,0.652,2.895C256.864,268.653,256.842,272.454,256.164,276.148z"/>
	<path fill-rule="evenodd" clip-rule="evenodd" fill="#FFFEFE" d="M388.432,301.697c-15.733-13.317-24.952-31.408-33.319-49.397
		c-3.829-8.232-6.208-18.708-3.622-28.934c1.217-4.811,1.276-9.953,1.513-14.961c0.242-5.132-0.802-10.013-4.695-13.788
		c-3.632-3.522-0.841-5.659,1.392-8.293c2.569-3.032,4.763-3.175,7.759-0.617c7.222,6.166,9.225,15.121,11.317,23.43
		c1.575,6.253,3.581,12.172,5.811,18.167c4.028,10.83,6.01,22.313,6.472,33.713c0.428,10.598,3.472,20.761,3.659,31.305
		c0.02,1.099,0.286,2.392,2.156,3.184c1.393-8.071,0.145-15.997,0.335-23.868C389.813,281.566,387.689,291.69,388.432,301.697z"/>
	<path fill-rule="evenodd" clip-rule="evenodd" fill="#FBF9F9" d="M192.468,261.473c2.242-7.456,1.69-15.114,1.433-22.708
		c-0.357-10.545-0.056-21.055,1.349-31.496c0.997-7.402,6.927-11.523,11.948-8.371c4.018,2.522,5.841,6.677,2.819,10.885
		c-6.654,9.267-9.48,19.538-9.146,30.744c0.263,8.814-0.765,17.157-6.745,24.177C193.976,263.42,193.783,262.158,192.468,261.473z"
		/>
	<path fill-rule="evenodd" clip-rule="evenodd" fill="#AC6F7D" d="M256.164,276.148c-0.967-4.589,0.002-8.933,2.767-13.268
		c0,2.358,0,4.717,0.001,7.075C255.942,271.096,258.035,274.508,256.164,276.148z"/>
	<path fill-rule="evenodd" clip-rule="evenodd" fill="#FCFAFA" d="M326.038,221.662c-13.937-3.562-27.29-7.888-38.696-16.576
		c-10.318-7.859-9.874-20.328,1.668-26.053c3.889-1.93,7.803,1.942,8.944,6.46c1.403,5.546,2.891,11.156,3.387,16.821
		c0.46,5.233,3.114,7.402,7.652,8.917C315.453,213.391,321.691,216.157,326.038,221.662z"/>
</g>
</svg>
